<svg width="128" height="128" viewBox="0 0 128 128" fill="none" xmlns="http://www.w3.org/2000/svg">
<mask id="mask0_1_630" style="mask-type:alpha" maskUnits="userSpaceOnUse" x="25" y="14" width="78" height="99">
<path d="M88.6437 27.9834C85.0752 27.9834 81.7122 29.3799 79.1744 31.9154C76.6378 34.452 75.2413 37.815 75.2413 41.3846V48.22C75.2413 50.6793 77.2421 52.6812 79.7003 52.6812C82.1596 52.6812 84.1604 50.6793 84.1604 48.22V41.3846C84.1604 40.197 84.6299 39.0745 85.4817 38.2227C87.182 36.5224 90.0943 36.5191 91.7946 38.2172C92.6419 39.0656 93.1093 40.1848 93.1093 41.368V84.7668C93.1093 85.9533 92.6397 87.0758 91.789 87.9276C90.4279 89.2865 88.2901 89.6212 86.6219 88.7706C86.0363 88.4712 85.5116 88.0414 85.158 87.5973L50.0409 34.7072L49.7514 34.262C49.5106 33.8863 49.2664 33.5074 48.998 33.1649C47.7849 31.6093 46.2249 30.32 44.4893 29.4362C42.6244 28.4861 40.533 27.9834 38.4427 27.9834C34.8709 27.9834 31.5079 29.3799 28.9724 31.9165C26.4357 34.4531 25.0393 37.815 25.0393 41.3846V84.7833C25.0393 88.3485 26.4335 91.7071 28.9668 94.2415C31.499 96.7737 34.8587 98.168 38.425 98.168C41.9946 98.168 45.3565 96.7715 47.8932 94.2349C50.4298 91.6983 51.8273 88.3353 51.8273 84.7668V80.5166C51.8273 78.0573 49.8254 76.0565 47.3673 76.0565C44.908 76.0565 42.9072 78.0573 42.9072 80.5166V84.7668C42.9072 85.9544 42.4377 87.0769 41.5859 87.9276C39.8845 89.6268 36.9744 89.6312 35.273 87.9342C34.4268 87.0868 33.9594 85.9677 33.9594 84.7833V41.3846C33.9594 40.197 34.429 39.0745 35.2797 38.2238C36.6364 36.866 38.7764 36.5301 40.4446 37.3797C41.0169 37.6725 41.5284 38.0879 41.8676 38.4989L74.2691 87.2979C74.6348 87.8492 75.0613 88.5065 75.4955 89.1793C76.5417 90.7968 77.5305 92.3247 78.0586 92.9688C79.2717 94.531 80.8349 95.8269 82.5794 96.7141C84.4443 97.6653 86.5357 98.168 88.626 98.168C92.1967 98.168 95.5597 96.7715 98.0963 94.2349C100.633 91.6983 102.028 88.3364 102.028 84.7668V41.368C102.028 37.8029 100.634 34.4443 98.1019 31.9099C95.5675 29.3777 92.2089 27.9834 88.6437 27.9834Z" fill="white"/>
<path d="M63.5338 22.5444C65.876 22.5444 67.774 20.6464 67.774 18.3042C67.774 15.9631 65.876 14.064 63.5338 14.064C61.1916 14.064 59.2936 15.9631 59.2936 18.3042C59.2936 20.6464 61.1916 22.5444 63.5338 22.5444Z" fill="white"/>
<path d="M63.5338 104.519C61.1916 104.519 59.2936 106.417 59.2936 108.76C59.2936 111.102 61.1916 113 63.5338 113C65.876 113 67.774 111.102 67.774 108.76C67.774 106.417 65.876 104.519 63.5338 104.519Z" fill="white"/>
<path d="M63.5338 81.9064C61.1916 81.9064 59.2936 83.8045 59.2936 86.1467C59.2936 88.4888 61.1916 90.3869 63.5338 90.3869C65.876 90.3869 67.774 88.4888 67.774 86.1467C67.774 83.8045 65.876 81.9064 63.5338 81.9064Z" fill="white"/>
<path d="M63.5338 45.1586C65.876 45.1586 67.774 43.2605 67.774 40.9183C67.774 38.5773 65.876 36.6781 63.5338 36.6781C61.1916 36.6781 59.2936 38.5773 59.2936 40.9183C59.2936 43.2605 61.1916 45.1586 63.5338 45.1586Z" fill="white"/>
</mask>
<g mask="url(#mask0_1_630)">
<rect x="128" y="128" width="128" height="128" transform="rotate(-180 128 128)" fill="url(#paint0_linear_1_630)"/>
</g>
<defs>
<linearGradient id="paint0_linear_1_630" x1="208.722" y1="104.747" x2="208.722" y2="241.323" gradientUnits="userSpaceOnUse">
<stop offset="1" stop-color="#1574D5"/>
<stop stop-color="#C645FF"/>
</linearGradient>
</defs>
</svg>
